HIERARCHY
ROOT Hips
{
  OFFSET 53.6943 57.9527 -15.4439
  CHANNELS 6 Xposition Yposition Zposition Zrotation Xrotation Yrotation
  JOINT spine
  {
    OFFSET 0 7.4756 0.429885
    CHANNELS 3 Zrotation Xrotation Yrotation
    JOINT spine1
    {
      OFFSET 0 9.92301 0
      CHANNELS 3 Zrotation Xrotation Yrotation
      JOINT spine2
      {
        OFFSET 0 9.50804 0
        CHANNELS 3 Zrotation Xrotation Yrotation
        JOINT Neck
        {
          OFFSET 0 24.4111 1.16384
          CHANNELS 3 Zrotation Xrotation Yrotation
          JOINT Head
          {
            OFFSET 0 7.37523 0
            CHANNELS 3 Zrotation Xrotation Yrotation
            End Site
            {
              OFFSET 0 17.8522 -5.88741
            }
          }
        }
        JOINT RightShoulder
        {
          OFFSET -4.00356 10.2679 -0.557468
          CHANNELS 3 Zrotation Xrotation Yrotation
          JOINT RightArm
          {
            OFFSET 0 13.4673 0
            CHANNELS 3 Zrotation Xrotation Yrotation
            JOINT RightArmRoll
            {
              OFFSET 0 6.79858 0
              CHANNELS 3 Zrotation Xrotation Yrotation
              JOINT RightForeArm
              {
                OFFSET 0 19.8018 0
                CHANNELS 3 Zrotation Xrotation Yrotation
                JOINT RightForeArmRoll
                {
                  OFFSET 0 7.62905 0
                  CHANNELS 3 Zrotation Xrotation Yrotation
                  JOINT RightHand
                  {
                    OFFSET 0 15.3098 0
                    CHANNELS 3 Zrotation Xrotation Yrotation
                    End Site
                    {
                      OFFSET 0 0 0
                    }
                  }
                }
              }
            }
          }
        }
        JOINT LeftShoulder
        {
          OFFSET 4.00356 10.2679 -0.557468
          CHANNELS 3 Zrotation Xrotation Yrotation
          JOINT LeftArm
          {
            OFFSET 0 13.4673 0
            CHANNELS 3 Zrotation Xrotation Yrotation
            JOINT LeftArmRoll
            {
              OFFSET 0 6.79858 0
              CHANNELS 3 Zrotation Xrotation Yrotation
              JOINT LeftForeArm
              {
                OFFSET 0 19.8018 0
                CHANNELS 3 Zrotation Xrotation Yrotation
                JOINT LeftForeArmRoll
                {
                  OFFSET 0 7.62905 0
                  CHANNELS 3 Zrotation Xrotation Yrotation
                  JOINT LeftHand
                  {
                    OFFSET 0 15.3098 0
                    CHANNELS 3 Zrotation Xrotation Yrotation
                    End Site
                    {
                      OFFSET 0 0 0
                    }
                  }
                }
              }
            }
          }
        }
      }
    }
  }
  JOINT RightUpLeg
  {
    OFFSET -6.62609 -1.21505 -1.01927
    CHANNELS 3 Zrotation Xrotation Yrotation
    JOINT RightUpLegRoll
    {
      OFFSET 0 17.9517 0
      CHANNELS 3 Zrotation Xrotation Yrotation
      JOINT RightLeg
      {
        OFFSET 0 -22.2304 0
        CHANNELS 3 Zrotation Xrotation Yrotation
        JOINT RightLegRoll
        {
          OFFSET 0 22.3032 0
          CHANNELS 3 Zrotation Xrotation Yrotation
          JOINT RightFoot
          {
            OFFSET 0 18.5636 0
            CHANNELS 3 Zrotation Xrotation Yrotation
            JOINT RightToeBase
            {
              OFFSET 0 15.5183 0
              CHANNELS 3 Zrotation Xrotation Yrotation
              End Site
              {
                OFFSET 0.00657761 7.51539 -0.866263
              }
            }
          }
        }
      }
    }
  }
  JOINT LeftUpLeg
  {
    OFFSET 6.62609 -1.21505 -1.01927
    CHANNELS 3 Zrotation Xrotation Yrotation
    JOINT LeftUpLegRoll
    {
      OFFSET 0 17.9518 0
      CHANNELS 3 Zrotation Xrotation Yrotation
      JOINT LeftLeg
      {
        OFFSET 0 22.2303 0
        CHANNELS 3 Zrotation Xrotation Yrotation
        JOINT LeftLegRoll
        {
          OFFSET 0 22.5093 0
          CHANNELS 3 Zrotation Xrotation Yrotation
          JOINT LeftFoot
          {
            OFFSET 0 18.3575 0
            CHANNELS 3 Zrotation Xrotation Yrotation
            JOINT LeftToeBase
            {
              OFFSET 0 15.5183 0
              CHANNELS 3 Zrotation Xrotation Yrotation
              End Site
              {
                OFFSET -0.029478 7.51537 -0.866264
              }
            }
          }
        }
      }
    }
  }
}
MOTION
Frames: 11
Frame Time: 0.00208333
55.885 60.9817 -5.97294 0.0900037 9.08907 -0.924209 -0.259748 2.59435 -0.713509 -0.483664 9.1945 -1.38559 -0.468249 10.8394 -1.38043 -7.60312 -26.0835 -3.66002 10.181 10.2472 -2.89195 56.1562 -6.52988 -3.92348 113.03 30.3495 -22.5109 -1.43685e-005 8.51752e-007 1.21263e-007 18.9915 28.3424 -4.54056 -1.00399e-006 2.0653e-006 -3.00534 8.02968 -4.9514 0.697648 -70.5025 -8.67045 5.60883 -94.4991 16.0441 -4.93132 8.50696e-007 1.8834e-007 5.29406e-006 -13.483 29.004 4.89248 -6.46088e-007 2.15217e-007 3.00802 -8.03018 -4.95139 -0.697633 -121.044 84.2177 -51.7006 180 7.01295e-015 178.125 -104.955 83.0611 104.499 -3.87021e-006 -4.96728e-006 2.7707 -20.9968 68.6177 20.0997 8.50414 30.4819 -3.65552 -146.453 86.0867 -39.2483 4.54188e-006 -4.6773e-006 -1.41458 47.0838 -83.3723 47.5307 -4.2131e-007 -4.95531e-006 -2.17337 19.7178 68.5164 -19.9838 -8.32508 27.9636 3.51063 
55.8807 60.9464 -6.03121 0.0885187 8.98429 -0.931671 -0.255245 2.59737 -0.717987 -0.474494 9.20051 -1.39532 -0.458933 10.8454 -1.39034 -7.72373 -25.9716 -3.65902 10.2593 10.1926 -2.8818 56.0741 -6.51427 -3.90963 113.17 30.4102 -22.4941 -1.43685e-005 8.51752e-007 1.21263e-007 18.9601 28.314 -4.5375 -1.00399e-006 2.0653e-006 -3.00534 8.02968 -4.9514 0.697648 -70.589 -8.67144 5.61082 -94.4814 16.1209 -5.12285 8.50696e-007 1.8834e-007 5.29406e-006 -13.3578 28.9874 4.86178 -6.46088e-007 2.15217e-007 3.00802 -8.03018 -4.95139 -0.697633 -121.358 84.1925 -51.356 180 7.01295e-015 178.123 -104.891 83.0662 104.447 -3.87021e-006 -4.96728e-006 2.76296 -20.9793 68.5622 20.0493 8.50461 30.4867 -3.65633 -146.477 86.0375 -39.2144 4.54188e-006 -4.6773e-006 -1.41436 47.0936 -83.3752 47.5399 -4.2131e-007 -4.95532e-006 -2.17078 19.6687 68.4611 -19.9348 -8.32451 27.9562 3.50629 
55.8445 60.9033 -6.0771 0.088712 8.87531 -0.936586 -0.251637 2.60174 -0.721927 -0.467227 9.20924 -1.40381 -0.451541 10.8541 -1.39897 -7.82356 -25.8676 -3.65573 10.3201 10.1424 -2.87141 56.013 -6.50114 -3.89836 113.287 30.4722 -22.4742 -1.43685e-005 8.51752e-007 1.21263e-007 18.9296 28.2933 -4.53561 -1.00399e-006 2.0653e-006 -3.00534 8.02968 -4.9514 0.697648 -70.66 -8.67546 5.61404 -94.4822 16.2039 -5.30879 8.50696e-007 1.8834e-007 5.29406e-006 -13.23 28.9669 4.82966 -6.46088e-007 2.15217e-007 3.00802 -8.03018 -4.95139 -0.697633 -121.737 84.1677 -50.9511 180 7.01294e-015 178.122 -104.84 83.0702 104.408 -3.87021e-006 -4.96728e-006 2.75604 -20.9584 68.507 19.9994 8.50498 30.4902 -3.65699 -146.603 85.9857 -39.0805 4.54188e-006 -4.6773e-006 -1.41444 47.0857 -83.3766 47.5316 -4.2131e-007 -4.95532e-006 -2.16809 19.6207 68.4054 -19.8857 -8.32403 27.9498 3.50291 
55.8647 60.8632 -6.12948 0.0912255 8.76115 -0.938548 -0.24915 2.60778 -0.725273 -0.462332 9.22131 -1.41089 -0.446545 10.8662 -1.40616 -7.89922 -25.7732 -3.64982 10.3608 10.0974 -2.86078 55.9762 -6.49089 -3.89008 113.377 30.5358 -22.4512 -1.43685e-005 8.51752e-007 1.21263e-007 18.9003 28.2814 -4.5351 -1.00399e-006 2.0653e-006 -3.00534 8.02968 -4.9514 0.697648 -70.713 -8.68311 5.61875 -94.5039 16.2942 -5.48783 8.50696e-007 1.8834e-007 5.29406e-006 -13.0991 28.9423 4.79605 -6.46088e-007 2.15217e-007 3.00802 -8.03018 -4.95139 -0.697633 -122.193 84.1432 -50.4744 180 7.01294e-015 178.121 -104.804 83.0729 104.38 -3.87021e-006 -4.96728e-006 2.75011 -20.9334 68.4521 19.9497 8.50523 30.4924 -3.65747 -146.85 85.9305 -38.8292 4.54188e-006 -4.6773e-006 -1.4149 47.0576 -83.3763 47.5034 -4.2131e-007 -4.95532e-006 -2.16527 19.5738 68.3492 -19.8365 -8.32364 27.9447 3.50064 
55.8675 60.8388 -6.16831 0.0946291 8.64285 -0.937532 -0.247385 2.61528 -0.727919 -0.459073 9.23629 -1.41642 -0.443211 10.8812 -1.41176 -7.95131 -25.6879 -3.64113 10.3805 10.0567 -2.84961 55.9625 -6.48374 -3.88488 113.442 30.6009 -22.425 -1.43685e-005 8.51752e-007 1.21263e-007 18.8717 28.2785 -4.53594 -1.00399e-006 2.0653e-006 -3.00534 8.02968 -4.9514 0.697648 -70.7486 -8.69423 5.62486 -94.5469 16.3927 -5.66204 8.50696e-007 1.8834e-007 5.29406e-006 -12.9642 28.9113 4.7603 -6.46088e-007 2.15217e-007 3.00802 -8.03018 -4.95139 -0.697633 -122.712 84.1185 -49.9392 180 7.01293e-015 178.12 -104.783 83.0749 104.367 -3.87021e-006 -4.96728e-006 2.74503 -20.9049 68.3977 19.9006 8.50537 30.4932 -3.65777 -147.187 85.8726 -38.4894 4.54188e-006 -4.6773e-006 -1.41564 47.0123 -83.3746 47.4581 -4.2131e-007 -4.95532e-006 -2.16232 19.5281 68.2929 -19.7876 -8.32334 27.9409 3.49946 
55.8392 60.8053 -6.21293 0.0971521 8.5223 -0.933991 -0.245788 2.62373 -0.729847 -0.456373 9.25315 -1.42046 -0.440454 10.898 -1.41586 -7.98419 -25.6098 -3.62996 10.3818 10.0184 -2.83772 55.9674 -6.47932 -3.8823 113.487 30.667 -22.3958 -1.43685e-005 8.51752e-007 1.21263e-007 18.8435 28.2832 -4.53789 -1.00399e-006 2.0653e-006 -3.00534 8.02968 -4.9514 0.697648 -70.7702 -8.70802 5.63203 -94.6081 16.4988 -5.8345 8.50696e-007 1.8834e-007 5.29406e-006 -12.8244 28.8725 4.72201 -6.46088e-007 2.15217e-007 3.00802 -8.03018 -4.95139 -0.697633 -123.268 84.0925 -49.37 180 7.01293e-015 178.119 -104.779 83.0772 104.368 -3.87021e-006 -4.96728e-006 2.74053 -20.8744 68.3441 19.8523 8.50541 30.4931 -3.65795 -147.568 85.8125 -38.1055 4.54188e-006 -4.6773e-006 -1.41649 46.9547 -83.372 47.4003 -4.2131e-007 -4.95532e-006 -2.15925 19.4835 68.2366 -19.739 -8.32311 27.9378 3.49914 
55.8335 60.7698 -6.26289 0.0989269 8.39978 -0.928239 -0.24435 2.63299 -0.731141 -0.45418 9.2716 -1.42317 -0.438223 10.9165 -1.41862 -8.0001 -25.5379 -3.61659 10.3669 9.9823 -2.8252 55.9888 -6.47725 -3.88202 113.513 30.7336 -22.3636 -1.43685e-005 8.51752e-007 1.21263e-007 18.8154 28.2944 -4.54081 -1.00399e-006 2.0653e-006 -3.00534 8.02968 -4.9514 0.697648 -70.7794 -8.72409 5.6401 -94.6854 16.6116 -6.00538 8.50696e-007 1.8834e-007 5.29406e-006 -12.6804 28.827 4.6815 -6.46088e-007 2.15217e-007 3.00802 -8.03018 -4.95139 -0.697633 -123.857 84.0652 -48.7711 180 7.01293e-015 178.118 -104.79 83.0795 104.383 -3.87021e-006 -4.96728e-006 2.73653 -20.842 68.291 19.8047 8.50538 30.4921 -3.65802 -147.986 85.7504 -37.686 4.54188e-006 -4.6773e-006 -1.41744 46.8853 -83.3684 47.3306 -4.2131e-007 -4.95532e-006 -2.15608 19.4397 68.1803 -19.6907 -8.32293 27.9354 3.49956 
55.821 60.749 -6.31472 0.100084 8.27559 -0.920589 -0.243065 2.64292 -0.731885 -0.452447 9.29137 -1.42474 -0.436467 10.9362 -1.42022 -8.00131 -25.4711 -3.60134 10.3382 9.94821 -2.81218 56.0248 -6.47716 -3.88369 113.524 30.8006 -22.3283 -1.43685e-005 8.51752e-007 1.21263e-007 18.7874 28.3113 -4.54454 -1.00399e-006 2.0653e-006 -3.00534 8.02968 -4.9514 0.697648 -70.7779 -8.74206 5.64891 -94.7765 16.73 -6.17484 8.50696e-007 1.8834e-007 5.29406e-006 -12.5328 28.7757 4.6391 -6.46088e-007 2.15217e-007 3.00802 -8.03018 -4.95139 -0.697633 -124.473 84.0366 -48.1469 180 7.01292e-015 178.117 -104.815 83.0821 104.412 -3.87021e-006 -4.96728e-006 2.73299 -20.8081 68.2385 19.7577 8.50529 30.4903 -3.65799 -148.431 85.6864 -37.2387 4.54188e-006 -4.6773e-006 -1.41848 46.8046 -83.3641 47.2496 -4.2131e-007 -4.95532e-006 -2.1528 19.3967 68.124 -19.6428 -8.3228 27.9337 3.5006 
55.7975 60.7009 -6.35851 0.100751 8.15004 -0.911354 -0.241924 2.65337 -0.732161 -0.451124 9.31218 -1.42532 -0.435134 10.957 -1.42084 -7.99007 -25.4085 -3.58451 10.298 9.91585 -2.79878 56.0732 -6.47867 -3.88696 113.522 30.8676 -22.29 -1.43685e-005 8.51752e-007 1.21263e-007 18.7594 28.3328 -4.54895 -1.00399e-006 2.0653e-006 -3.00534 8.02968 -4.9514 0.697648 -70.7672 -8.76154 5.65831 -94.8795 16.8529 -6.34304 8.50696e-007 1.8834e-007 5.29406e-006 -12.3823 28.7197 4.59513 -6.46088e-007 2.15217e-007 3.00802 -8.03018 -4.95139 -0.697633 -125.111 84.0067 -47.502 180 -7.01292e-015 178.116 -104.855 83.0846 104.453 -3.87021e-006 -4.96728e-006 2.72983 -20.773 68.1863 19.7112 8.50513 30.4879 -3.65788 -148.896 85.6206 -36.7709 4.54188e-006 -4.6773e-006 -1.41959 46.7132 -83.3588 47.1579 -4.2131e-007 -4.95532e-006 -2.14945 19.3544 68.0677 -19.5951 -8.3227 27.9325 3.50216 
55.7915 60.6682 -6.41274 0.101054 8.0234 -0.900846 -0.240921 2.66419 -0.732053 -0.450161 9.33374 -1.4251 -0.434172 10.9786 -1.42064 -7.96863 -25.3491 -3.56639 10.2485 9.88499 -2.78511 56.1321 -6.48138 -3.89151 113.509 30.9343 -22.2488 -1.43685e-005 8.51752e-007 1.21263e-007 18.7313 28.358 -4.55389 -1.00399e-006 2.0653e-006 -3.00534 8.02968 -4.9514 0.697648 -70.7491 -8.78216 5.66812 -94.9921 16.9792 -6.51014 8.50696e-007 1.8834e-007 5.29406e-006 -12.2294 28.6601 4.54991 -6.46088e-007 2.15217e-007 3.00802 -8.03018 -4.95139 -0.697633 -125.768 83.9754 -46.8405 180 7.01291e-015 178.115 -104.908 83.0872 104.506 -3.87021e-006 -4.96728e-006 2.72702 -20.7368 68.1345 19.665 8.50492 30.4849 -3.65771 -149.375 85.5531 -36.2898 4.54188e-006 -4.6773e-006 -1.42076 46.6117 -83.3527 47.0561 -4.2131e-007 -4.95532e-006 -2.14602 19.3127 68.0113 -19.5475 -8.32264 27.9317 3.50413 
55.8089 60.6435 -6.45295 0.101114 7.89599 -0.889376 -0.240047 2.67525 -0.731644 -0.449509 9.35578 -1.42425 -0.433531 11.0006 -1.41981 -7.93924 -25.2919 -3.54728 10.1921 9.8554 -2.77129 56.1996 -6.48491 -3.89699 113.486 31.0004 -22.2045 -1.43685e-005 8.51752e-007 1.21263e-007 18.7029 28.3859 -4.55922 -1.00399e-006 2.0653e-006 -3.00534 8.02968 -4.9514 0.697648 -70.7251 -8.80354 5.67821 -95.1123 17.108 -6.67629 8.50696e-007 1.8834e-007 5.29406e-006 -12.0747 28.5978 4.50377 -6.46088e-007 2.15217e-007 3.00802 -8.03018 -4.95139 -0.697633 -126.438 83.9429 -46.1669 180 7.01291e-015 178.114 -104.973 83.0898 104.571 -3.87021e-006 -4.96728e-006 2.72447 -20.7 68.0829 19.6193 8.50467 30.4814 -3.65748 -149.861 85.484 -35.8018 4.54188e-006 -4.6773e-006 -1.42197 46.5007 -83.3458 46.9448 -4.2131e-007 -4.95531e-006 -2.14253 19.2714 67.9547 -19.5001 -8.3226 27.9312 3.50637 
